# AST/ASF file generated using VICON BodyLanguage
# -----------------------------------------------
:version 1.10
:name VICON
:units
  mass 1.0
  length 0.45
  angle deg
:documentation
   .ast/.asf automatically generated from VICON data using
   VICON BodyBuilder and BodyLanguage model FoxedUp or BRILLIANT.MOD
:root
   order TX TY TZ RX RY RZ
   axis XYZ
   position 0 0 0  
   orientation 0 0 0 
:bonedata
  begin
     id 1 
     name lhipjoint
     direction 0.710087 -0.641647 0.289942 
     length 2.79038 
     axis 0 0 0  XYZ
  end
  begin
     id 2 
     name lfemur
     direction 0.34202 -0.939693 0  
     length 7.2706  
     axis 0 0 20  XYZ
    dof rx ry rz
    limits (-160.0 20.0)
           (-70.0 70.0)
           (-60.0 70.0)
  end
  begin
     id 3 
     name ltibia
     direction 0.34202 -0.939693 0   
     length 7.86328   
     axis 0 0 20   XYZ
    dof rx
    limits (-10.0 170.0)
  end
  begin
     id 4 
     name lfoot
     direction 0.0541246 -0.148706 0.987399   
     length 2.37542   
     axis -90 7.62852e-016 20   XYZ
    dof rx rz
    limits (-45.0 90.0)
           (-70.0 20.0)
  end
  begin
     id 5 
     name ltoes
     direction 1.53554e-011 -4.21866e-011 1   
     length 1.19593   
     axis -90 7.62852e-016 20   XYZ
    dof rx
    limits (-90.0 20.0)
  end
  begin
     id 6 
     name rhipjoint
     direction -0.675762 -0.671724 0.303533   
     length 2.66544  
     axis 0 0 0  XYZ 
  end
  begin
     id 7 
     name rfemur
     direction -0.34202 -0.939693 0   
     length 8.11844   
     axis 0 0 -20   XYZ
    dof rx ry rz
    limits (-160.0 20.0)
           (-70.0 70.0)
           (-70.0 60.0)
  end
  begin
     id 8 
     name rtibia
     direction -0.34202 -0.939693 0   
     length 7.97082   
     axis 0 0 -20   XYZ
    dof rx
    limits (-10.0 170.0)
 end
 begin
     id 9 
     name rfoot
     direction -0.0726228 -0.199474 0.977208   
     length 2.19677  
     axis -90 -7.62852e-016 -20   XYZ
    dof rx rz
    limits (-45.0 90.0)
           (-20.0 70.0)
  end
  begin
     id 10 
     name rtoes
     direction -1.53508e-011 -4.21913e-011 1   
     length 1.10438   
     axis -90 -7.62852e-016 -20   XYZ
    dof rx
    limits (-90.0 20.0)
  end
  begin
     id 11 
     name lowerback
     direction -0.00404436 0.999673 -0.0252643   
     length 2.03972   
     axis 0 0 0   XYZ
    dof rx ry rz
    limits (-20.0 45.0)
           (-30.0 30.0)
           (-30.0 30.0)
  end
  begin
     id 12 
     name upperback
     direction 0.00744643 0.999969 0.00242763   
     length 2.04273   
     axis 0 0 0   XYZ
    dof rx ry rz
    limits (-20.0 45.0)
           (-30.0 30.0)
           (-30.0 30.0)
  end
  begin
     id 13 
     name thorax
     direction 0.00846113 0.999862 0.0143204   
     length 2.03752   
     axis 0 0 0   XYZ
    dof rx ry rz
    limits (-20.0 45.0)
           (-30.0 30.0)
           (-30.0 30.0)
  end
  begin
     id 14 
     name lowerneck
     direction 0.0328213 0.990857 0.130862   
     length 1.37497   
     axis 0 0 0   XYZ
    dof rx ry rz
    limits (-20.0 45.0)
           (-30.0 30.0)
           (-30.0 30.0)
  end
  begin
     id 15 
     name upperneck
     direction -0.0302832 0.999496 0.00956452   
     length 1.35926   
     axis 0 0 0   XYZ
    dof rx ry rz
    limits (-20.0 45.0)
           (-30.0 30.0)
           (-30.0 30.0)
  end
  begin
     id 16
     name head
     direction -0.0130455 0.999856 -0.0108809  
     length 1.44454  
     axis 0 0 0   XYZ
    dof rx ry rz
    limits (-20.0 45.0)
           (-30.0 30.0)
           (-30.0 30.0)
  end
  begin
     id 17 
     name lclavicle
     direction 0.952957 0.278766 0.119006  
     length 3.10112  
     axis 0 0 0   XYZ
    dof ry rz
    limits (-20.0 10.0)
           (0.0 20.0)
  end
  begin
     id 18 
     name lhumerus
     direction 1 -4.48972e-011 -1.63238e-028   
     length 5.82845   
     axis -180 -30 -90   XYZ
    dof rx ry rz
    limits (-60.0 90.0)
           (-90.0 90.0)
           (-90.0 90.0)
  end
  begin
     id 19
     name lradius
     direction 1 -4.48959e-011 1.45401e-026   
     length 3.49691   
     axis -180 -30 -90   XYZ
    dof rx
    limits (-10.0 170.0)
  end
  begin
     id 20
     name lwrist
     direction 1 -4.48945e-011 2.98015e-026   
     length 1.74845   
     axis -1.7599e-014 90 90   XYZ
    dof ry
    limits (-180.0 0.0)
 end
  begin
     id 21 
     name lhand
     direction 1 -4.4902e-011 5.9603e-026   
     length 0.674998   
     axis -3.80318e-014 90 90   XYZ
    dof rx rz
    limits (-90.0 90.0)
           (-45.0 45.0)
  end
  begin
     id 22 
     name lfingers
     direction 1 -4.48979e-011 1.19206e-025   
     length 0.544201   
     axis -7.60636e-014 90 90   XYZ
    dof rx
    limits (0.0 90.0)
  end
  begin
     id 23
     name lthumb
     direction 0.707107 -6.34941e-011 0.707107   
     length 0.781367   
     axis -90 45 2.85299e-015   XYZ
    dof rx rz
    limits (-45.0 45.0)
           (-45.0 45.0)
  end
  begin
     id 24 
     name rclavicle
     direction -0.967632 0.241887 0.0719654   
     length 3.53012  
     axis 0 0 0   XYZ 
    dof ry rz
    limits (-10.0 20.0)
           (-20.0 0.0)
  end
  begin
     id 25 
     name rhumerus
     direction -1 -4.4897e-011 6.87619e-028  
     length 5.45859   
     axis -180 30 90   XYZ
    dof rx ry rz
    limits (-90.0 60.0)
           (-90.0 90.0)
           (-90.0 90.0)
  end
  begin
     id 26 
     name rradius
     direction -1 -4.48967e-011 1.68055e-026   
     length 3.58491   
     axis -180 30 90   XYZ
    dof rx
    limits (-10.0 170.0)
  end
  begin
     id 27 
     name rwrist
     direction -1 -4.48976e-011 2.98015e-026   
     length 1.79245   
     axis -1.7599e-014 -90 -90   XYZ
    dof ry
    limits (-180.0 0.0)
  end
  begin
     id 28
     name rhand
     direction -1 -4.48996e-011 5.9603e-026   
     length 0.683735   
     axis -3.80318e-014 -90 -90   XYZ
    dof rx rz
    limits (-90.0 90.0)
           (-45.0 45.0)
  end
  begin
     id 29
     name rfingers
     direction -1 -4.48924e-011 1.19206e-025   
     length 0.551245   
     axis -7.60636e-014 -90 -90   XYZ
    dof rx
    limits (0.0 90.0)
  end
  begin
     id 30
     name rthumb
     direction -0.707107 -6.3492e-011 0.707107   
     length 0.791481   
     axis -90 -45 -2.85299e-015   XYZ
    dof rx rz
    limits (-45.0 45.0)
           (-45.0 45.0)
  end
:hierarchy
  begin
    root lhipjoint rhipjoint lowerback
    lhipjoint lfemur
    lfemur ltibia
    ltibia lfoot
    lfoot ltoes
    rhipjoint rfemur
    rfemur rtibia
    rtibia rfoot
    rfoot rtoes
    lowerback upperback
    upperback thorax
    thorax lowerneck lclavicle rclavicle
    lowerneck upperneck
    upperneck head
    lclavicle lhumerus
    lhumerus lradius
    lradius lwrist
    lwrist lhand lthumb
    lhand lfingers
    rclavicle rhumerus
    rhumerus rradius
    rradius rwrist
    rwrist rhand rthumb
    rhand rfingers
  end

#!OML:ASF F:\VICON\USERDATA\INSTALL\rory3\rory3.ASF
:FULLY-SPECIFIED
:DEGREES
1775
root 0.699273 18.2394 -32.1022 -162.218 -169.129 179.776
lowerback 2.59638 2.40559 1.01945
upperback -0.82385 3.25694 0.580898
thorax -2.27608 1.61483 -0.121163
lowerneck -11.3916 4.47395 3.58411
upperneck -2.72527 5.62103 -7.47909
head 1.45539 2.62767 -2.77217
rclavicle 3.26007e-014 5.1684e-015
rhumerus -35.1283 10.9226 -94.0121
rradius 68.6635
rwrist -158.206
rhand -37.8405 418.942
rfingers 7.12502
rthumb -10.8854 -330.756
lclavicle 3.26007e-014 5.1684e-015
lhumerus -40.8993 -51.7342 106.977
lradius 88.5969
lwrist 14.0336
lhand -32.4024 424.368
lfingers 7.12502
lthumb -185.637 445.727
rfemur -35.0683 16.0491 10.5544
rtibia 41.224
rfoot -33.1634 -5.85965
rtoes 19.7219
lfemur -23.9893 -2.0356 -22.3557
ltibia 20.742
lfoot -11.8704 17.5745
ltoes -2.51677
1776
root 0.702228 18.2368 -32.1112 -161.82 -168.869 179.818
lowerback 2.66321 2.37649 1.39008
upperback -0.971324 3.23307 0.51172
thorax -2.44112 1.59528 -0.404243
lowerneck -10.9015 4.59539 3.68302
upperneck -3.39273 5.75074 -7.83452
head 1.17674 2.70474 -2.9141
rclavicle -1.98785e-014 2.10712e-014
rhumerus -35.8239 10.5917 -93.9168
rradius 71.4924
rwrist -164.009
rhand -35.2465 424.048
rfingers 7.12502
rthumb -8.38265 -325.766
lclavicle -1.98785e-014 2.10712e-014
lhumerus -40.7277 -52.8062 107.35
lradius 87.4737
lwrist 12.8098
lhand -33.8658 423.661
lfingers 7.12502
lthumb -187.05 446.477
rfemur -35.6245 15.6922 10.4763
rtibia 41.2815
rfoot -32.731 -6.06702
rtoes 18.4049
lfemur -24.3804 -1.5376 -22.5354
ltibia 20.6023
lfoot -11.8269 17.2312
ltoes -2.11017
1777
root 0.702564 18.2466 -32.1174 -161.385 -168.811 179.838
lowerback 2.49621 2.29313 1.74005
upperback -0.951493 3.12991 0.496934
thorax -2.30918 1.53964 -0.601319
lowerneck -10.8885 4.8022 3.71616
upperneck -4.04086 5.98946 -8.14898
head 0.991798 2.82905 -3.01852
rclavicle -1.55052e-014 1.51076e-014
rhumerus -36.0368 10.4183 -93.7598
rradius 74.4518
rwrist -168.808
rhand -32.712 428.741
rfingers 7.12502
rthumb -5.93618 -321.156
lclavicle -1.55052e-014 1.51076e-014
lhumerus -39.9669 -53.9807 107.307
lradius 86.3611
lwrist 11.9582
lhand -35.2455 422.936
lfingers 7.12502
lthumb -188.382 447.251
rfemur -36.1334 15.8925 10.2483
rtibia 41.335
rfoot -32.9528 -6.11087
rtoes 18.6472
lfemur -24.78 -0.99196 -22.6739
ltibia 20.4286
lfoot -11.812 16.6443
ltoes -1.70141
1778
root 0.691273 18.2547 -32.1284 -160.983 -168.864 179.898
lowerback 2.45509 2.26761 1.95303
upperback -0.947753 3.09884 0.349329
thorax -2.26363 1.52045 -0.867593
lowerneck -11.2465 4.94489 3.93348
upperneck -4.51027 6.11999 -8.25398
head 0.92145 2.88994 -3.08483
rclavicle 4.37326e-015 -1.59028e-015
rhumerus -36.0277 10.2058 -93.8168
rradius 77.7106
rwrist -172.919
rhand -30.507 433.577
rfingers 7.12502
rthumb -3.80711 -316.369
lclavicle 4.37326e-015 -1.59028e-015
lhumerus -39.1717 -55.7119 107.053
lradius 85.3879
lwrist 11.1054
lhand -36.3656 422.357
lfingers 7.12502
lthumb -189.463 447.875
rfemur -36.6218 16.0448 10.0529
rtibia 41.3856
rfoot -33.2445 -6.43538
rtoes 18.2828
lfemur -25.1982 -0.0538206 -22.8895
ltibia 20.2187
lfoot -11.6541 15.4765
ltoes -0.170967
1779
root 0.675129 18.2599 -32.1301 -160.738 -168.698 179.98
lowerback 2.45088 2.32998 1.98142
upperback -0.950417 3.17916 0.170125
thorax -2.25006 1.55905 -1.06983
lowerneck -11.5125 5.00972 4.36045
upperneck -4.91685 6.12617 -8.48944
head 0.861981 2.88406 -3.2437
rclavicle -3.81667e-014 -5.56597e-015
rhumerus -36.0721 10.2403 -93.9456
rradius 81.451
rwrist -176.449
rhand -28.4364 438.606
rfingers 7.12502
rthumb -1.80741 -311.366
lclavicle -3.81667e-014 -5.56597e-015
lhumerus -38.4145 -57.4253 106.737
lradius 84.5398
lwrist 10.2406
lhand -36.8806 422.693
lfingers 7.12502
lthumb -189.959 447.563
rfemur -36.9881 16.5409 9.77577
rtibia 41.418
rfoot -33.6854 -7.03047
rtoes 17.691
lfemur -25.3796 0.79688 -23.1427
ltibia 19.9814
lfoot -11.3222 14.8392
ltoes -0.699184
1780
root 0.664953 18.2661 -32.1252 -160.597 -168.548 180.025
lowerback 2.40716 2.26154 1.98775
upperback -0.976577 3.08823 0.206258
thorax -2.25694 1.51362 -1.03151
lowerneck -11.417 5.12644 4.24889
upperneck -5.4394 6.26614 -8.65074
head 0.686421 2.96342 -3.27694
rclavicle -1.17283e-014 9.14409e-015
rhumerus -36.256 11.1658 -93.847
rradius 85.6237
rwrist -179.573
rhand -26.5721 444.251
rfingers 7.12502
rthumb -0.00680342 -305.729
lclavicle -1.17283e-014 9.14409e-015
lhumerus -37.3266 -58.4501 106.339
lradius 83.6413
lwrist 9.35213
lhand -37.3003 424.26
lfingers 7.12502
lthumb -190.364 446.015
rfemur -37.1767 16.6927 9.66307
rtibia 41.4279
rfoot -33.7493 -7.63098
rtoes 16.4282
lfemur -25.4085 1.15082 -23.2501
ltibia 19.7816
lfoot -11.1898 14.6381
ltoes -1.10757
1781
root 0.654543 18.2722 -32.1179 -160.427 -168.486 179.967
lowerback 2.27798 2.25431 2.18052
upperback -0.9244 3.07855 0.102108
thorax -2.11537 1.50744 -1.23774
lowerneck -12.0618 5.20914 4.27617
upperneck -5.61498 6.3438 -8.65965
head 0.746034 2.98961 -3.27002
rclavicle -2.16675e-014 6.36111e-015
rhumerus -36.0735 11.8547 -93.8717
rradius 90.0037
rwrist -182.315
rhand -24.557 269.128
rfingers 7.12502
rthumb 1.93938 -299.099
lclavicle -2.16675e-014 6.36111e-015
lhumerus -35.2573 -59.8517 105.026
lradius 82.8456
lwrist 9.55148
lhand -35.3638 428.533
lfingers 7.12502
lthumb -188.496 441.658
rfemur -37.3525 17.0285 9.60894
rtibia 41.3869
rfoot -33.9761 -7.92222
rtoes 16.8739
lfemur -25.452 1.05304 -23.1028
ltibia 19.6547
lfoot -11.555 14.5534
ltoes 0.834511
1782
root 0.647766 18.2769 -32.1029 -160.323 -168.588 179.905
lowerback 2.11503 2.13654 2.41394
upperback -1.18825 2.92851 0.0792347
thorax -2.28805 1.42483 -1.38559
lowerneck -11.4556 5.26785 4.32898
upperneck -5.89668 6.41515 -8.7527
head 0.56114 3.04087 -3.3229
rclavicle 1.2921e-014 1.23246e-014
rhumerus -36.5118 12.7529 -93.9859
rradius 94.4678
rwrist -184.731
rhand -22.6907 263.576
rfingers 7.12502
rthumb 3.74178 -293.523
lclavicle 1.2921e-014 1.23246e-014
lhumerus -33.7068 -60.6552 104.091
lradius 82.1894
lwrist 9.89561
lhand -37.0323 425.256
lfingers 7.12502
lthumb -190.106 445.006
rfemur -37.3219 17.2016 9.64425
rtibia 41.326
rfoot -34.2101 -7.87562
rtoes 17.7996
lfemur -25.4653 1.09579 -23.0058
ltibia 19.5787
lfoot -11.6406 14.3349
ltoes 1.96937
1783
root 0.635277 18.2769 -32.0806 -160.514 -168.707 180.011
lowerback 1.97718 2.0506 2.27634
upperback -1.22524 2.80714 0.111366
thorax -2.26154 1.36678 -1.26681
lowerneck -11.5385 5.28087 4.14673
upperneck -5.90662 6.44967 -8.73205
head 0.566093 3.05948 -3.27811
rclavicle 2.60408e-014 -1.55052e-014
rhumerus -36.3389 13.3026 -93.6395
rradius 98.7486
rwrist -186.617
rhand -21.0176 258.689
rfingers 7.12502
rthumb 5.35734 -288.601
lclavicle 2.60408e-014 -1.55052e-014
lhumerus -30.8786 -61.597 102.204
lradius 81.3891
lwrist 9.20366
lhand -37.2315 424.028
lfingers 7.12502
lthumb -190.298 446.244
rfemur -36.9436 17.5174 9.5738
rtibia 41.245
rfoot -34.6666 -7.20115
rtoes 20.117
lfemur -25.1844 1.01999 -23.052
ltibia 19.5606
lfoot -11.7036 14.2685
ltoes 2.18532
1784
root 0.616551 18.275 -32.0559 -160.934 -168.93 180.059
lowerback 1.97585 2.01621 2.29809
upperback -1.12783 2.75793 -0.000255606
thorax -2.15597 1.34318 -1.38909
lowerneck -11.9141 5.19838 4.28338
upperneck -5.91373 6.31119 -8.78854
head 0.626686 2.97821 -3.32363
rclavicle 1.78906e-015 7.55382e-015
rhumerus -35.5052 13.2572 -93.1909
rradius 102.443
rwrist -188.077
rhand -20.2882 256.445
rfingers 7.12502
rthumb 6.06153 -286.339
lclavicle 1.78906e-015 7.55382e-015
lhumerus -26.7045 -62.7594 99.0239
lradius 80.5469
lwrist 8.50044
lhand -37.44 424.147
lfingers 7.12502
lthumb -190.499 446.136
rfemur -36.275 18.0063 9.65038
rtibia 41.1637
rfoot -35.252 -7.21356
rtoes 20.671
lfemur -24.6869 1.08048 -23.0311
ltibia 19.6272
lfoot -11.7488 13.9504
ltoes 2.14123
